<svg width="18" height="18" viewBox="0 0 18 18" fill="none" xmlns="http://www.w3.org/2000/svg">
<path d="M15.75 3H8.25L7.5 0.75H2.25C1.425 0.75 0.75 1.425 0.75 2.25V13.5C0.75 14.325 1.425 15 2.25 15H8.25L9 17.25H15.75C16.575 17.25 17.25 16.575 17.25 15.75V4.5C17.25 3.675 16.575 3 15.75 3ZM5.25 12C3.18 12 1.5 10.32 1.5 8.25C1.5 6.18 3.18 4.5 5.25 4.5C6.2625 4.5 7.11 4.875 7.7625 5.475L6.7725 6.4275C6.4875 6.1575 5.9925 5.8425 5.25 5.8425C3.945 5.8425 2.8875 6.9225 2.8875 8.25C2.8875 9.5775 3.945 10.6575 5.25 10.6575C6.7575 10.6575 7.38 9.5775 7.44 8.85H5.25V7.5675H8.76C8.8125 7.8 8.85 8.025 8.85 8.3325C8.85 10.4775 7.4175 12 5.25 12ZM9.8775 7.935H12.6525C12.33 8.8725 11.82 9.7575 11.115 10.5375C10.8825 10.275 10.665 9.9975 10.47 9.7125L9.8775 7.935ZM16.125 15.375C16.125 15.7875 15.7875 16.125 15.375 16.125H10.5L12 14.25L11.22 11.925L13.545 14.25L14.235 13.56L11.76 11.1225L11.775 11.1075C12.6225 10.17 13.2225 9.09 13.575 7.9425H15V6.9675H11.6025V6H10.635V6.9675H9.555L8.595 4.125H15.375C15.7875 4.125 16.125 4.4625 16.125 4.875V15.375Z" fill="#3F51B5"/>
</svg>
